<?xml version="1.0" standalone="no"?>
<!DOCTYPE svg PUBLIC "-//W3C//DTD SVG 20010904//EN"
 "http://www.w3.org/TR/2001/REC-SVG-20010904/DTD/svg10.dtd">
<svg version="1.0" xmlns="http://www.w3.org/2000/svg"
 width="260.000000pt" height="260.000000pt" viewBox="0 0 260.000000 260.000000"
 preserveAspectRatio="xMidYMid meet">
<metadata>
Created by potrace 1.14, written by Peter Selinger 2001-2017
</metadata>
<g transform="translate(0.000000,260.000000) scale(0.100000,-0.100000)"
fill="#000000" stroke="none">
<path d="M0 1300 l0 -1300 1300 0 1300 0 0 1300 0 1300 -1300 0 -1300 0 0
-1300z m407 550 c63 -146 116 -266 117 -267 1 -1 56 119 121 267 l120 270 48
0 47 0 0 -335 0 -335 -35 0 -35 0 -1 283 c-1 155 -4 273 -7 261 -4 -11 -59
-138 -122 -282 -95 -217 -118 -262 -135 -262 -17 0 -41 46 -142 278 l-123 277
0 -277 0 -278 -35 0 -35 0 0 336 0 335 51 -3 50 -3 116 -265z m1013 -57 c69
-179 127 -330 128 -335 2 -4 -16 -8 -40 -8 l-44 0 -34 95 -35 95 -141 0 -142
0 -33 -95 -33 -95 -44 0 c-38 0 -43 2 -37 18 4 9 61 160 128 335 l121 317 40
0 41 0 125 -327z m550 292 l0 -35 -95 0 -95 0 0 -300 0 -300 -40 0 -40 0 0
300 0 300 -95 0 -95 0 0 35 0 35 230 0 230 0 0 -35z m520 0 l0 -35 -95 0 -95
0 0 -300 0 -300 -40 0 -40 0 0 300 0 300 -95 0 -95 0 0 35 0 35 230 0 230 0 0
-35z m-1814 -936 c44 -11 44 -11 44 -56 0 -39 -2 -44 -17 -38 -34 15 -118 35
-143 35 -98 0 -202 -74 -233 -165 -20 -58 -22 -175 -3 -228 51 -143 210 -194
379 -122 15 6 17 1 17 -34 l0 -40 -57 -17 c-84 -24 -212 -16 -279 19 -101 51
-153 140 -162 272 -11 181 77 322 231 371 52 16 164 18 223 3z m564 -325 c69
-180 127 -331 129 -336 1 -5 -19 -8 -45 -6 l-49 3 -34 93 -34 92 -137 0 -138
0 -33 -95 -33 -95 -48 0 -48 0 20 51 c11 28 63 163 116 302 134 353 115 317
166 317 l43 0 125 -326z m530 304 c76 -39 112 -117 90 -198 -14 -50 -61 -105
-105 -121 l-33 -12 28 -23 c15 -13 58 -74 95 -136 38 -62 75 -123 83 -135 14
-23 14 -23 -36 -23 l-50 0 -65 112 c-92 159 -114 178 -198 178 l-39 0 0 -145
0 -145 -40 0 -40 0 0 335 0 335 133 0 c118 0 138 -3 177 -22z m600 -13 l0 -35
-130 0 -130 0 0 -110 0 -110 120 0 120 0 0 -35 0 -35 -120 0 -120 0 0 -120 0
-120 140 0 140 0 0 -35 0 -35 -180 0 -180 0 0 335 0 335 170 0 170 0 0 -35z"/>
<path d="M1201 1884 c-29 -80 -55 -152 -58 -160 -4 -11 16 -14 110 -14 l116 0
-26 68 c-14 37 -40 109 -58 159 l-32 93 -52 -146z"/>
<path d="M1015 898 c-27 -77 -51 -144 -53 -149 -2 -5 47 -9 108 -9 103 0 112
1 105 18 -4 9 -27 73 -52 142 -25 69 -48 128 -52 132 -3 4 -28 -56 -56 -134z"/>
<path d="M1540 960 l0 -122 79 3 c93 5 128 24 150 83 11 30 12 44 2 76 -17 57
-47 73 -147 78 l-84 5 0 -123z"/>
</g>
</svg>
